<svg width="55" height="12" viewBox="0 0 55 12" fill="none" xmlns="http://www.w3.org/2000/svg">
<path d="M1.46777 7.10352V11H0.155273V1.04688H3.82617C4.91536 1.04688 5.76758 1.32487 6.38281 1.88086C7.0026 2.43685 7.3125 3.17285 7.3125 4.08887C7.3125 5.05501 7.00944 5.80013 6.40332 6.32422C5.80176 6.84375 4.93815 7.10352 3.8125 7.10352H1.46777ZM1.46777 6.03027H3.82617C4.52799 6.03027 5.06576 5.86621 5.43945 5.53809C5.81315 5.2054 6 4.72689 6 4.10254C6 3.51009 5.81315 3.03613 5.43945 2.68066C5.06576 2.3252 4.55306 2.14062 3.90137 2.12695H1.46777V6.03027ZM10.1631 11H8.89844V3.60352H10.1631V11ZM8.7959 1.6416C8.7959 1.43652 8.85742 1.26335 8.98047 1.12207C9.10807 0.980794 9.29492 0.910156 9.54102 0.910156C9.78711 0.910156 9.97396 0.980794 10.1016 1.12207C10.2292 1.26335 10.293 1.43652 10.293 1.6416C10.293 1.84668 10.2292 2.01758 10.1016 2.1543C9.97396 2.29102 9.78711 2.35938 9.54102 2.35938C9.29492 2.35938 9.10807 2.29102 8.98047 2.1543C8.85742 2.01758 8.7959 1.84668 8.7959 1.6416ZM13.3896 3.60352L13.4307 4.5332C13.9958 3.82227 14.734 3.4668 15.6455 3.4668C17.2087 3.4668 17.9971 4.34863 18.0107 6.1123V11H16.7461V6.10547C16.7415 5.57227 16.6185 5.17806 16.377 4.92285C16.14 4.66764 15.7686 4.54004 15.2627 4.54004C14.8525 4.54004 14.4925 4.64941 14.1826 4.86816C13.8727 5.08691 13.6312 5.37402 13.458 5.72949V11H12.1934V3.60352H13.3896ZM21.6338 1.8125V3.60352H23.0146V4.58105H21.6338V9.16797C21.6338 9.46419 21.6953 9.6875 21.8184 9.83789C21.9414 9.98372 22.151 10.0566 22.4473 10.0566C22.5931 10.0566 22.7936 10.0293 23.0488 9.97461V11C22.7161 11.0911 22.3926 11.1367 22.0781 11.1367C21.513 11.1367 21.0869 10.9658 20.7998 10.624C20.5127 10.2822 20.3691 9.79688 20.3691 9.16797V4.58105H19.0225V3.60352H20.3691V1.8125H21.6338ZM27.5674 11.1367C26.5648 11.1367 25.749 10.8086 25.1201 10.1523C24.4912 9.49154 24.1768 8.6097 24.1768 7.50684V7.27441C24.1768 6.54069 24.3158 5.88672 24.5938 5.3125C24.8763 4.73372 25.2682 4.28255 25.7695 3.95898C26.2754 3.63086 26.8223 3.4668 27.4102 3.4668C28.3717 3.4668 29.1191 3.78353 29.6523 4.41699C30.1855 5.05046 30.4521 5.95736 30.4521 7.1377V7.66406H25.4414C25.4596 8.39323 25.6715 8.9834 26.0771 9.43457C26.4873 9.88118 27.0068 10.1045 27.6357 10.1045C28.0824 10.1045 28.4606 10.0133 28.7705 9.83105C29.0804 9.64876 29.3516 9.40723 29.584 9.10645L30.3564 9.70801C29.7367 10.6605 28.807 11.1367 27.5674 11.1367ZM27.4102 4.50586C26.8997 4.50586 26.4714 4.69271 26.125 5.06641C25.7786 5.43555 25.5645 5.95508 25.4824 6.625H29.1875V6.5293C29.151 5.88672 28.9779 5.38997 28.668 5.03906C28.3581 4.68359 27.9388 4.50586 27.4102 4.50586ZM35.4971 4.73828C35.3057 4.70638 35.0983 4.69043 34.875 4.69043C34.0456 4.69043 33.4827 5.04362 33.1865 5.75V11H31.9219V3.60352H33.1523L33.1729 4.45801C33.5876 3.7972 34.1755 3.4668 34.9365 3.4668C35.1826 3.4668 35.3695 3.4987 35.4971 3.5625V4.73828ZM39.5986 11.1367C38.596 11.1367 37.7803 10.8086 37.1514 10.1523C36.5225 9.49154 36.208 8.6097 36.208 7.50684V7.27441C36.208 6.54069 36.347 5.88672 36.625 5.3125C36.9076 4.73372 37.2995 4.28255 37.8008 3.95898C38.3066 3.63086 38.8535 3.4668 39.4414 3.4668C40.403 3.4668 41.1504 3.78353 41.6836 4.41699C42.2168 5.05046 42.4834 5.95736 42.4834 7.1377V7.66406H37.4727C37.4909 8.39323 37.7028 8.9834 38.1084 9.43457C38.5186 9.88118 39.0381 10.1045 39.667 10.1045C40.1136 10.1045 40.4919 10.0133 40.8018 9.83105C41.1117 9.64876 41.3828 9.40723 41.6152 9.10645L42.3877 9.70801C41.7679 10.6605 40.8382 11.1367 39.5986 11.1367ZM39.4414 4.50586C38.931 4.50586 38.5026 4.69271 38.1562 5.06641C37.8099 5.43555 37.5957 5.95508 37.5137 6.625H41.2188V6.5293C41.1823 5.88672 41.0091 5.38997 40.6992 5.03906C40.3893 4.68359 39.9701 4.50586 39.4414 4.50586ZM48.2598 9.03809C48.2598 8.69629 48.1299 8.43197 47.8701 8.24512C47.6149 8.05371 47.166 7.88965 46.5234 7.75293C45.8854 7.61621 45.3773 7.45215 44.999 7.26074C44.6253 7.06934 44.3473 6.84147 44.165 6.57715C43.9873 6.31283 43.8984 5.99837 43.8984 5.63379C43.8984 5.02767 44.1536 4.51497 44.6641 4.0957C45.179 3.67643 45.8353 3.4668 46.6328 3.4668C47.4714 3.4668 48.1504 3.68327 48.6699 4.11621C49.194 4.54915 49.4561 5.10286 49.4561 5.77734H48.1846C48.1846 5.43099 48.0365 5.13249 47.7402 4.88184C47.4486 4.63118 47.0794 4.50586 46.6328 4.50586C46.1725 4.50586 45.8125 4.60612 45.5527 4.80664C45.293 5.00716 45.1631 5.26921 45.1631 5.59277C45.1631 5.89811 45.2839 6.12826 45.5254 6.2832C45.7669 6.43815 46.2021 6.58626 46.8311 6.72754C47.4645 6.86882 47.9772 7.03743 48.3691 7.2334C48.7611 7.42936 49.0505 7.66634 49.2373 7.94434C49.4287 8.21777 49.5244 8.55273 49.5244 8.94922C49.5244 9.61003 49.2601 10.141 48.7314 10.542C48.2028 10.9385 47.5169 11.1367 46.6738 11.1367C46.0814 11.1367 45.5573 11.0319 45.1016 10.8223C44.6458 10.6126 44.2881 10.321 44.0283 9.94727C43.7731 9.56901 43.6455 9.16113 43.6455 8.72363H44.9102C44.9329 9.14746 45.1016 9.4847 45.416 9.73535C45.735 9.98145 46.1543 10.1045 46.6738 10.1045C47.1523 10.1045 47.5352 10.0088 47.8223 9.81738C48.1139 9.62142 48.2598 9.36165 48.2598 9.03809ZM52.8877 1.8125V3.60352H54.2686V4.58105H52.8877V9.16797C52.8877 9.46419 52.9492 9.6875 53.0723 9.83789C53.1953 9.98372 53.4049 10.0566 53.7012 10.0566C53.847 10.0566 54.0475 10.0293 54.3027 9.97461V11C53.9701 11.0911 53.6465 11.1367 53.332 11.1367C52.7669 11.1367 52.3408 10.9658 52.0537 10.624C51.7666 10.2822 51.623 9.79688 51.623 9.16797V4.58105H50.2764V3.60352H51.623V1.8125H52.8877Z" fill="white"/>
</svg>
